<svg xmlns="http://www.w3.org/2000/svg" xmlns:xlink="http://www.w3.org/1999/xlink" viewBox="0 0 1037.04 136.35"><defs><style>.cls-1{fill:url(#linear-gradient);}.cls-2{fill:url(#linear-gradient-2);}.cls-3{fill:url(#linear-gradient-3);}.cls-4{fill:url(#linear-gradient-4);}.cls-5{fill:url(#linear-gradient-5);}.cls-6{fill:url(#linear-gradient-6);}.cls-7{fill:url(#linear-gradient-7);}.cls-8{fill:url(#linear-gradient-8);}.cls-9{fill:url(#linear-gradient-9);}.cls-10{font-size:96px;fill:#cbeaef;font-family:Spartan-Regular, Spartan;letter-spacing:-0.06em;}.cls-11{letter-spacing:-0.08em;}.cls-12{letter-spacing:-0.06em;}.cls-13{letter-spacing:-0.05em;}.cls-14{letter-spacing:-0.05em;}.cls-15{letter-spacing:-0.06em;}.cls-16{letter-spacing:-0.05em;}.cls-17{letter-spacing:-0.05em;}.cls-18{letter-spacing:-0.07em;}.cls-19{letter-spacing:-0.05em;}</style><linearGradient id="linear-gradient" x1="54.72" y1="17.32" x2="89.36" y2="17.32" gradientUnits="userSpaceOnUse"><stop offset="0.14" stop-color="#87cec5"/><stop offset="1" stop-color="#aeb5d9"/></linearGradient><linearGradient id="linear-gradient-2" x1="16.92" y1="31.82" x2="48.91" y2="31.82" xlink:href="#linear-gradient"/><linearGradient id="linear-gradient-3" x1="0" y1="66.86" x2="31.64" y2="66.86" xlink:href="#linear-gradient"/><linearGradient id="linear-gradient-4" x1="12.09" y1="102.32" x2="42.05" y2="102.32" xlink:href="#linear-gradient"/><linearGradient id="linear-gradient-5" x1="45.25" y1="121.95" x2="74.05" y2="121.95" xlink:href="#linear-gradient"/><linearGradient id="linear-gradient-6" x1="82.4" y1="115.56" x2="108.45" y2="115.56" xlink:href="#linear-gradient"/><linearGradient id="linear-gradient-7" x1="112.83" y1="58.94" x2="134.61" y2="58.94" xlink:href="#linear-gradient"/><linearGradient id="linear-gradient-8" x1="107.51" y1="91.14" x2="132.08" y2="91.14" xlink:href="#linear-gradient"/><linearGradient id="linear-gradient-9" x1="97.83" y1="30.85" x2="118.74" y2="30.85" xlink:href="#linear-gradient"/></defs><g id="Layer_2" data-name="Layer 2"><g id="Layer_1-2" data-name="Layer 1"><circle class="cls-1" cx="72.04" cy="17.32" r="17.32"/><circle class="cls-2" cx="32.92" cy="31.82" r="15.99"/><circle class="cls-3" cx="15.82" cy="66.86" r="15.82"/><circle class="cls-4" cx="27.07" cy="102.32" r="14.98"/><circle class="cls-5" cx="59.65" cy="121.95" r="14.4"/><circle class="cls-6" cx="95.43" cy="115.56" r="13.02"/><circle class="cls-7" cx="123.72" cy="58.94" r="10.89"/><circle class="cls-8" cx="119.8" cy="91.14" r="12.28"/><circle class="cls-9" cx="108.29" cy="30.85" r="10.46"/><text class="cls-10" transform="translate(144.1 96.11) scale(0.85 0.86)">S<tspan class="cls-11" x="60.14" y="0">y</tspan><tspan class="cls-12" x="111.69" y="0">s</tspan><tspan class="cls-13" x="153.5" y="0">t</tspan><tspan class="cls-14" x="184.41" y="0">e</tspan><tspan class="cls-13" x="243.41" y="0">m L</tspan><tspan class="cls-15" x="407.56" y="0">e</tspan><tspan class="cls-16" x="466.27" y="0">v</tspan><tspan class="cls-17" x="519.55" y="0">e</tspan><tspan class="cls-13" x="578.54" y="0">l</tspan><tspan class="cls-18" x="601.34" y="0"> </tspan><tspan class="cls-13" x="619.2" y="0">S</tspan><tspan class="cls-14" x="679.92" y="0">o</tspan><tspan class="cls-13" x="742.41" y="0">l</tspan><tspan class="cls-15" x="765.21" y="0">u</tspan><tspan class="cls-13" x="820.27" y="0">ti</tspan><tspan class="cls-17" x="873.98" y="0">o</tspan><tspan class="cls-15" x="936.47" y="0">n</tspan><tspan class="cls-19" x="992.83" y="0">s</tspan></text></g></g></svg>