<svg xmlns="http://www.w3.org/2000/svg" viewBox="0 0 616.3 407.36"><defs><style>.cls-1{fill:none;stroke:#fff;stroke-miterlimit:10;stroke-width:4px;}.cls-2,.cls-3{fill:#fff;}.cls-3{font-size:69px;font-family:CaviarDreams, Caviar Dreams;letter-spacing:0.08em;}.cls-4{letter-spacing:0.09em;}.cls-5{letter-spacing:0.08em;}.cls-6{letter-spacing:0.05em;}.cls-7{letter-spacing:0.07em;}.cls-8{letter-spacing:0.08em;}</style></defs><g id="Layer_2" data-name="Layer 2"><g id="Layer_1-2" data-name="Layer 1"><circle class="cls-1" cx="190.67" cy="49.83" r="47.83"/><circle class="cls-1" cx="213.94" cy="353.93" r="32.83"/><circle class="cls-1" cx="79.28" cy="354.12" r="51.24"/><circle class="cls-1" cx="34.83" cy="91.09" r="32.83"/><circle class="cls-1" cx="37.44" cy="212.32" r="21.42"/><circle class="cls-2" cx="71.23" cy="120.83" r="3.48"/><circle class="cls-2" cx="84.23" cy="131.52" r="3.48"/><circle class="cls-2" cx="97.22" cy="142.2" r="3.48"/><circle class="cls-2" cx="110.22" cy="152.89" r="3.48"/><circle class="cls-2" cx="73.8" cy="212.66" r="3.48"/><circle class="cls-2" cx="90.6" cy="213.42" r="3.48"/><circle class="cls-2" cx="132.99" cy="284.05" r="2.7"/><circle class="cls-2" cx="125.08" cy="294.45" r="2.7"/><circle class="cls-2" cx="117.17" cy="304.85" r="2.7"/><circle class="cls-2" cx="204.37" cy="307.32" r="3.48"/><circle class="cls-2" cx="188.57" cy="107.58" r="3.48"/><circle class="cls-2" cx="188.72" cy="124.41" r="3.48"/><path class="cls-2" d="M245.44,263.19c.38-.37.09-.38.12-.46C245,263.4,245.49,263.21,245.44,263.19Z"/><polygon class="cls-2" points="239.44 269.57 239.5 269.4 238.65 270.41 239.44 269.57"/><path class="cls-2" d="M232.91,274.54c.82-.17,2.42-1.73,3.64-2.55l.23-.08.35-.63A39.57,39.57,0,0,1,232.91,274.54Z"/><path class="cls-2" d="M228.81,276.21c.3,0-.75.58.9-.47l-.18.06Z"/><path class="cls-2" d="M229.53,275.8c.73-.45-.54.19,0,0Z"/><path class="cls-2" d="M226.13,277.83c.32-.21.63-.42.93-.65-.23.06-1.13.5-.83.28C225.24,278.05,225.48,278,226.13,277.83Z"/><path class="cls-2" d="M225.3,278.55l.5-.32A1,1,0,0,0,225.3,278.55Z"/><path class="cls-2" d="M226.85,277.56l-1,.67c.17,0,.24.07.49-.29C226.25,278.07,226.42,277.87,226.85,277.56Z"/><path class="cls-2" d="M227.48,277.26c.59-.25,1.33-.62.4.05C229.74,276.18,229.33,276.13,227.48,277.26Z"/><path class="cls-2" d="M232.76,275.08a7,7,0,0,0,.77-.4l.54-.52C233.81,274.43,232.66,275,232.76,275.08Z"/><path class="cls-2" d="M219.72,280.68c0,.1.43,0,.54.1.25-.13.5-.26.73-.41A3.92,3.92,0,0,1,219.72,280.68Z"/><path class="cls-2" d="M220.26,280.78l-1.1.59C220.2,281,220.36,280.83,220.26,280.78Z"/><polygon class="cls-2" points="225.31 279 227.01 277.8 224.95 279.18 225.31 279"/><polygon class="cls-2" points="215.28 282.37 215.88 281.97 214.79 282.64 215.28 282.37"/><path class="cls-2" d="M212.29,283.37c.45-.29-.76,0-.26-.27-.8.29-1.47.58-2.08.85A16,16,0,0,1,212.29,283.37Z"/><path class="cls-2" d="M208.92,284.39c.33-.12.66-.27,1-.44A9.38,9.38,0,0,0,208.92,284.39Z"/><path class="cls-2" d="M217.16,282.12a2.22,2.22,0,0,0-1,.13l.54,0Z"/><path class="cls-2" d="M216.71,282.29h0l-1,.34Z"/><path class="cls-2" d="M217.28,282.08l-.12,0A.11.11,0,0,0,217.28,282.08Z"/><path class="cls-2" d="M222.26,280.27c-.62.41-2,1.18-.54.72C222.14,280.63,221.33,280.9,222.26,280.27Z"/><path class="cls-2" d="M218,282.12l1.25-.46s-.3,0,0-.22Z"/><path class="cls-2" d="M217.36,282.41c.19-.1.39-.18.59-.29l-.47.16Z"/><path class="cls-2" d="M211.17,284a14.45,14.45,0,0,1-1.82.59c.74-.15,1.51-.31,2.23-.52C211.66,284,212,283.78,211.17,284Z"/><path class="cls-2" d="M213.88,283.24l-.11.05C213.85,283.29,213.91,283.27,213.88,283.24Z"/><polygon class="cls-2" points="202.51 286.01 202.62 286.03 202.64 285.99 202.51 286.01"/><path class="cls-2" d="M211.72,284.08a4.21,4.21,0,0,0,1.16-.44c-.4.15-.83.29-1.3.44C211.55,284.12,211.54,284.14,211.72,284.08Z"/><path class="cls-2" d="M207.05,284.93l1-.09A3,3,0,0,0,207.05,284.93Z"/><path class="cls-2" d="M213.56,283.29l.08,0C213.45,283.27,213.48,283.28,213.56,283.29Z"/><path class="cls-2" d="M213.56,283.29c-.27.12-.47.24-.68.35l.89-.35Z"/><path class="cls-2" d="M200.59,287.66a6.51,6.51,0,0,1,2.89-.6c1.25-.36.3-.86-.86-1,0,.08,0,.18-1.3.49.48.05,2.94-.23,1.87.14a5,5,0,0,1-2.29.17c.75.16-2.18.62-1.76.94l1.52-.31C200.7,287.51,200.15,287.67,200.59,287.66Z"/><path class="cls-2" d="M205.1,285.63l.52-.14a9.13,9.13,0,0,1-1.88.08c-.87.24-1.05.34-1.1.42.88-.15,1.76-.26,2.63-.43Z"/><path class="cls-2" d="M208,285c-.37.3-1.63.66-.79.72,1.56-.34,1-.42,1.95-.74-2.47.7.69-.3-1.14,0l1.33-.4c-.46.09-.89.18-1.31.24h.07c.12,0,.15,0,0,0l0,0a.27.27,0,0,1-.09.1c-.74.11-.13,0,.09-.1a.08.08,0,0,0,0,0h0l-2.48.65C206.16,285.4,206.82,285.26,208,285Z"/><path class="cls-2" d="M220.64,282c-.08,0-.09,0-.1,0S220.34,282.08,220.64,282Z"/><path class="cls-2" d="M219.6,282.25a3.05,3.05,0,0,1,.85-.45c.52-.14,0,.1.09.15.32-.19,1.14-.63,0-.29l-.15.1a8.41,8.41,0,0,1-2.18.49A4,4,0,0,0,219.6,282.25Z"/><path class="cls-2" d="M213.78,283.92l-2,.74,1.1-.15-.08-.09C214,284.1,213.66,284.05,213.78,283.92Z"/><path class="cls-2" d="M202.25,285.94l.24-.27c-.38.17-.77.36-1.17.51C201.64,286.12,201.94,286,202.25,285.94Z"/><polygon class="cls-2" points="199.51 286.33 199.58 286.12 198.87 286.33 199.51 286.33"/><path class="cls-2" d="M120.67,181.35l.21-.62C120.77,181,120.71,181.21,120.67,181.35Z"/><path class="cls-2" d="M118.89,185.68l0,.14C119,185.6,119,185.51,118.89,185.68Z"/><path class="cls-2" d="M137.58,264.3c-.5-.8-1-1.73-1.07-1.5l0,.35A9,9,0,0,1,137.58,264.3Z"/><path class="cls-2" d="M116,223.32l0,.28.31.59C116.22,223.93,116.11,223.64,116,223.32Z"/><path class="cls-2" d="M115.06,222.8l0-1.25C115,221.83,115,222.23,115.06,222.8Z"/><path class="cls-2" d="M134.53,159.92l.36-.7C134.07,160.08,134.51,159.78,134.53,159.92Z"/><path class="cls-2" d="M171.34,284.31c-.73-.3-1.32-.51-1.85-.68C170.37,284,171.06,284.41,171.34,284.31Z"/><path class="cls-2" d="M122.06,183.92c.12-.37.14-.54.09-.54C122,183.75,122,184,122.06,183.92Z"/><path class="cls-2" d="M167.33,282.94l.37.19c.56.16,1.12.29,1.79.5A9,9,0,0,0,167.33,282.94Z"/><path class="cls-2" d="M220,141.17l.18.11S220.1,141.22,220,141.17Z"/><path class="cls-2" d="M241.27,157.16l-.81-.7A9.59,9.59,0,0,0,241.27,157.16Z"/><path class="cls-2" d="M188.37,286.71c.59,0,.1,0,0,0Z"/><path class="cls-2" d="M191.23,287.6c-.12,0-.22.06-.23.11A.38.38,0,0,1,191.23,287.6Z"/><path class="cls-2" d="M161.32,282.12l0,0C161.42,282.21,161.4,282.19,161.32,282.12Z"/><path class="cls-2" d="M189.26,286.82l-.75-.08C188.63,286.76,188.85,286.79,189.26,286.82Z"/><path class="cls-2" d="M189.14,286.71l.51,0C189.73,286.71,189.66,286.68,189.14,286.71Z"/><path class="cls-2" d="M187.56,286.68l.95.06c-.12,0-.17,0-.14,0Z"/><path class="cls-2" d="M171.29,138.69h.13C172,138.43,171.73,138.51,171.29,138.69Z"/><path class="cls-2" d="M126.21,253.51l0,.06,0-.08Z"/><path class="cls-2" d="M124.92,251.75a5.07,5.07,0,0,1,1.29,1.74l.15-1Z"/><path class="cls-2" d="M125.9,171.42l-1,1.2c.71-1.74,1.53-2.82.52-1.74.25.28-.58,1.53-1.3,2.84s-1.43,2.63-1.18,2.88l-.58.84c.13-.26.12-.32.25-.57-1.15,1.62-.23,1.52-1.39,3.75-.4.79-.74,1.31-.57.73l-.63,1.86c-.24.52-.29.35-.05-.17-.39.92-.69,1.88-1,2.81v0c0,.44-.25,1.39-.31,1.87-.33.69,0-.38-.09-.23l-.35,1.63c-.38.59-.12-.77.25-1.86-1.09,1.27-.3,1.35-1.61,4.45.11-.52.21-1,.35-1.54-.68.86-.83,2.1-1.53,3.76.23-.39,1.5-3.29,1.2-1.5a8.35,8.35,0,0,0-.49,2.09c-.24-.05-.38.89-.62,2.06l-.29-.15a6.33,6.33,0,0,0,0,2,3.25,3.25,0,0,1-.82,2c-.43,2.26.65-1.51.26,1.18a21.16,21.16,0,0,0-.32,2.6,27,27,0,0,0,0,2.91c-.2,1.32-.18-.25-.3.22l.17,1.19c0,.29-.09.2-.13.15,0,1,.3.09.35,1.65a4.63,4.63,0,0,1-.11,2,9.39,9.39,0,0,0,0,3.13c-.07.47-.2-.23-.32-.08a29.92,29.92,0,0,0,.83,4.4c0,.62,0,1.24,0,1.86.07-1.38.57.32,1,1.77,0-.49.1-.9.12-1.18.15.79.3,1.57.51,2.34,0,.3-.15.08-.35-.29l.15.42c0,.87-.23.46-.51-.12l0-.89c-.27-.56-.55-1.08-.72-.93a6.49,6.49,0,0,1,.18.77c-.07-.15-.13-.24-.15-.16a2.14,2.14,0,0,0,.22.7l-.26.6.17.11c.11,1.06.19,2.12.34,3.18.43,1.07.87,2.06,1.34,3.21s1,2.43,1.63,4.11c-.52-.77-.46-.06-.77,0,0-1-.91-2.65-1.33-4.48.2,1,0,.79-.1.56l1.17,3.14c-.27,0,0,.73.2,1.59.29-.78,1.06,2.28,1.73,3.47-.12.14-.41-.1-.94-1.67.28,1.85,1.37,2,1.72,3.78-.16-.36-.2-.58-.34-.7.47.83,1.31,3,1,2.54l-.16-.37a41.23,41.23,0,0,0,2.22,4.63,10,10,0,0,0,2,2.81,1.66,1.66,0,0,1-.77-.15c1.16,1.18,2.47,2.24,3.69,3.32-.53-.16-.4,1.69-1.76-.08a10.31,10.31,0,0,0,1.55,2.31c-.2-.39-.18-1.19.19-.72a22,22,0,0,0,1.35,2.9c-.34-.57.57-.33,1.18.49-.17-.08-.4.41-.68.15l2,1.68c-.47-.44-.46.22-.2.75-.09-.27,1.44,1.71,1.93,2.19l-.61-.91a6.8,6.8,0,0,0,2.19,1.9,9.49,9.49,0,0,1,2.26,1.77c-.33-.15-1.13-.09-.12,1a22.94,22.94,0,0,1,5.12,2.49l.26.44c.51.38,1.06.72,1.6,1.06-.3-.1-.73-.26-1.23-.46l-1.61-.75a25.74,25.74,0,0,1-3.13-1.72c.7.84.07.37,1.3,1.45.33.49-.84-.41-1.18-.75.89.92,1.86,1.73,2.79,2.6.07-.33,2.48,1.58,2.54,1.26-.57-.38-1.16-.75-1.72-1.14l-1.68-1.22c.1-.36,2.39.87,4.48,2.51.46.52-.76.16-.79.28a8.49,8.49,0,0,1,1.22.77,11.11,11.11,0,0,1,1.11.79l-1-.51c1.16,1,2.23,1.07,3.55,2.32.51.35,1.34,1.36,1.54,1.25-.66-.87-.18-2,.53-1.86l1.38,1.12c.69.53,1.43,1.1,1.69,1.36.73.76-1.68-.13-1.06.52a2.46,2.46,0,0,1,.85.2c.52.39-.38.12.87.78.37-.19,2.55,1.33.73,0,1.28.53,1.27.74,2.73,1.44-.37-.41,1.64-.08,2.92.39-.11,0,.13.28.24.39,1.3.54,2.29,1,3.25,1.41s2,.76,3.19,1.19c.2.16,1.39.6.83.59a7.67,7.67,0,0,1,1.53.26c1.42.72-1.75-.47-.7.21a23.55,23.55,0,0,1,3.24.47,3.31,3.31,0,0,0-1.53-.51c-.74-.18-1.6-.34-2.17-.44.12-.42,2.15-.21,4.84.2,2.11.4.85.47,1.22.51,4,.86,3.52-.08,6.79.7,1.29.41,0,.54.26.76a32.4,32.4,0,0,1-3.84-.7l1.44.34a9,9,0,0,1-2.37-.31,25.14,25.14,0,0,0,4.19.8l3,.34c1,.1,1.94.17,2.73.27.56,0,1.53-.11,1.08-.23l-1,0c-.9-.26,1.88-.19.63-.36a32.08,32.08,0,0,1,4.68-.24l.36.29a5.39,5.39,0,0,0-1.75,0c.77-.13,2.88.34,3.72-.09l-1.32-.17a36.63,36.63,0,0,1,4.58-.67c-.78-.25-.38.06-1.57-.2.52.18-.53.25-1.5.32s-1.87.07-1,.28c-1.22-.39-2.08-.06-3.65-.46.05.1.56.2-.82.13a1.79,1.79,0,0,1-.3.09h0c-.06,0-.06,0,0,0a2.4,2.4,0,0,1,.7.16,8.86,8.86,0,0,1-1.8.19c-.73,0-1.46,0-1.84,0-.82-.1.35-.1-.09-.23l-1.12.11c-.1-.21-2.13-.58-.21-.52l-1.72-.18c-.5-.12-1.09-.22-1.67-.3a13.51,13.51,0,0,0-1.57-.19c-.8-.17-2.08-.06-1.35-.13-.9-.08-1.79-.24-2.69-.36l0-.06c-1.32-.25-2.66-.54-4.07-.82a21.05,21.05,0,0,1-4.21-1.41,23.7,23.7,0,0,1-3.17-1.06l-.2-.29c-.55-.18-1.34-.55-2.06-.87a6.77,6.77,0,0,0-1.61-.65c-.93-.95-5-2.5-6.69-3.66l-.2.18-3.9-2.22,0,.25a42.31,42.31,0,0,1-5-3.78,3.4,3.4,0,0,1,.95.72,24.7,24.7,0,0,0-3.38-2.79c-.59-.44-1.18-.87-1.72-1.32a10.73,10.73,0,0,1-1.41-1.46,5.62,5.62,0,0,1-1.13-1.08l.13.11-.19-.19c-.18-.22-.34-.47-.53-.72a5.54,5.54,0,0,0,.43.62c-.35-.35-.88-.88-1.43-1.38l0-.39-.12-.12c-.43-.58-.48-.34-.35.06a9.58,9.58,0,0,0-.78-.61c-.1-.7-1.36-1.39-1.57-2.26-.51-.22-2.41-2.81-3-2.86,0-.06-.08-.25.16.07a17.48,17.48,0,0,0-1.41-1.93l.05-.46-1.37-1.25c-.43-1-.57-1.47.2-.68-1.67-2-1.29-1.7-2.68-3.47h.22a14.87,14.87,0,0,1-1.34-2.18,14.15,14.15,0,0,0-.82-2.06c-.43-.88-.91-2-1.41-3.14s-1-2.44-1.45-3.7a30.65,30.65,0,0,1-1.08-3.61c-.14.51-.24,0-.37-.67s-.22-1.46-.47-1.48c.07-.3,0-.93.28-.25-.77-2.2-.64-3.43-1.37-4.91.08-.29.31.44.34.19a2.71,2.71,0,0,1-.25-1c0-.24.18.32.32.66-.48-2.31-.9-2.49-1.34-2.59a6.17,6.17,0,0,0-.5-2.65c.08-.44.13-1.15.36.32,0-.42-.17-1.69-.29-2.86a5.89,5.89,0,0,0-.37-2.29,6.24,6.24,0,0,0-.1-1.38c0-1.87,0-2-.07-3.88l-.06.51c-.38-.72-.06-1.53-.08-3l0,.05c.46-3.39-.08-1.49.51-4.81l-.26.16c-.45-.36.58-2.94.75-4.87l-.25.67c0-1.09,1.16-2.82,1.48-3.83.09-.21,0,.37,0,.7.88-2.65-.23-.42.13-2.46.26-.34.3.57.66-.77a15.63,15.63,0,0,0,.48-2.48,12.15,12.15,0,0,1,1-3.28c-.25.36-.5.72-.3-.23a18.48,18.48,0,0,1,1.09-2.5,9.44,9.44,0,0,0,.87-2.47c.11-.16.17-.21.2-.2.18-.54.51-1.4.8-2.22a14.72,14.72,0,0,0,.66-1.91c1.12-.6,3-6.41,3.71-6,.62-1,1.18-2,1.86-2.94v.12a16.13,16.13,0,0,0,2-3.27c.35-.37.18,0,.18,0a35.45,35.45,0,0,0,3.82-5l.37-.05a20.44,20.44,0,0,1,2.16-2.12c1.06-1,2.44-2.16,3.5-3.37a.74.74,0,0,1-.19.32c2.48-2.64,7-4.84,7.64-6.27.6-.52,1.21-1,1.85-1.5-2.63,1.59.17-.59-1,0,1-.69,2.81-1.43,1.57-.6l-.22.08c-.11.35.72-.12,1.59-.64s1.83-1,1.87-.85a71.1,71.1,0,0,1,16.24-6.47l-.73-.18,1.91-.5c.52-.05.74.09-.61.45a5.94,5.94,0,0,0,2.25-.85c2.72-.46-1,.65-.12.47l1.1-.28-.26,0a8.84,8.84,0,0,1,2.58-.86c1.06-.11.58.13,1,.07,0,0,.15,0,.64-.1.81-.12,1.62-.28,2.45-.35-.34,0-.69-.12-1-.16,1.07-.29,2.32-.28,1.14-.46a10.86,10.86,0,0,0,2.19,0l3.21-.21c1.11-.11,2.21-.1,3.09-.14a11.73,11.73,0,0,1,1.81,0,23.34,23.34,0,0,1,5,0c-.46-.09-.72-.43.91-.28-.33.32.41.41,1.38.58a11.5,11.5,0,0,1,2.8.64c-1.11-.53,4.57.67,2.83-.08,1.33.27,0,.25,1,.58,3.22.38,6.89,1.74,10.66,3,.09-.06-.49-.42.35-.24l1.82,1.15c.74.25.88-.24,2.07.62-.15-.15-.39-.37.11-.19,3.53,1.69,7.09,3.49,10.52,5.57a43.92,43.92,0,0,1,9.4,7.4c-.7-.83-.14-.38.48.16-.38-.38.15-.16.15-.32.76.82,1.5,1.65,2.22,2.5.68.16,2.53,2.5,3,2.54l-.77-.72c1.25.75-.78-2-.31-2.18-1.42-.82-2.62-3.39-5.05-4.6-.38-.45.48.19.31-.09a9.28,9.28,0,0,1-2.41-1.73l.17.07c-3.39-2.46-4.74-3.66-8.74-6.17l.18.38a11.4,11.4,0,0,1-1.4-1c-1.18-.25,2.47,1.41,1.35,1.24a14.84,14.84,0,0,0-3.55-2.21c-.77-.39-1.53-.78-2.13-1.12a4.55,4.55,0,0,1-1.22-.82c-1.43-.63.31.43-1.12-.19l-.32-.3h-.44c-.91-.44-1.34-.76-1.33-.9.23.1.68.21.93.3A39.29,39.29,0,0,0,216,139.7c.47.18.92.4,1.38.6A65.14,65.14,0,0,0,204.27,137l.29.16a17.11,17.11,0,0,1-2.82-.44,26.76,26.76,0,0,0-3.06-.41h.13c-.7,0-1.62,0-2.55-.06.88-.07-1.61-.36-.47-.43a10.73,10.73,0,0,0-2.4.11,12.83,12.83,0,0,1-1.54.34l-.51-.2a10.84,10.84,0,0,1-2.53.34c1.4-.19-1.1-.25.47-.5a18,18,0,0,0-2.39,0c-.69.07-1.3.16-1.84.24a7.81,7.81,0,0,1-2.78.1c-.79.36,0,.33.86.25s1.82-.16,1.36-.07c.79.11-1.32.46-2.44.58s-2-.46-4.88.08c.29-.05.3-.09.58-.14a9.28,9.28,0,0,0-1.61.3,8.9,8.9,0,0,1-1.79.34c-.65.47-1.69.36-1.8.79l2.56-.67c-.72.22-1.4.52-2.2.8a16,16,0,0,1-2.93.83,10.07,10.07,0,0,1,1.31-.61c-.72.08-1.32.44-2.07.53,0-.22.82-.46,1.76-.73l1.48-.43a9.64,9.64,0,0,0,1.34-.43c-.81,0-2.89,1-2.21.39-1,.84-2.8.65-4.53,1.7l0-.27a11.4,11.4,0,0,1-1.4.61l.88-.61c-1.44.71-3,.83-4.36,1.49,3-1.15.78,0,2.1-.31-3.55,1.7-2.35.22-6.36,2.12.52-.31,2.12-.78,1.3-.32-.8.28-1.83.71-2.35.83-2.61,1.34.51,0-.54.7-1,.18-1.24.74-2.3,1.45l-.13-.21c-3,1.51-.55.82-3.18,2.23l.9-1-1.29.91.13-.41a28.33,28.33,0,0,1-3.23,2.2c.42-.08.07.49-1.13,1.33-.9.47.31-.54-1.33.76a2.69,2.69,0,0,1,1.45-1.22c0-.12.3-.39.33-.51a16.74,16.74,0,0,0-2.83,2.05,7.44,7.44,0,0,1,.69-.46c-.73.72-1.49,1.39-2.18,2.14-.42.24-.18-.06.06-.36-.45.42-.7.78-1.37,1.38,0-.3-.13-.41.79-1.32l-2.07,2c-.2.06-1.24.85-1,.53a19.7,19.7,0,0,0-2,2.05,21.47,21.47,0,0,1-2.17,2.41,4,4,0,0,1-.46.64,27.52,27.52,0,0,0-4,4.71l-1.11.86c-1,1.54,1.43-1.22-.27,1.37-1.17,1.85-.72.49-1.24,1.07A19.84,19.84,0,0,1,125,173C125.27,172.38,125.59,172,125.9,171.42Zm-9,20.94a5,5,0,0,1,.37-1.61C117.36,191.31,117.14,191.65,116.86,192.36Zm-.73,34.33a4,4,0,0,1-.19-1.4A8.79,8.79,0,0,1,116.13,226.69Zm65.81,59.71h-.05C181,286.2,181.28,286.29,181.94,286.4Zm2,.31c.2,0,.19,0,.11-.09a3.81,3.81,0,0,1-1.1-.06A2.35,2.35,0,0,0,183.91,286.71Zm-6-147.81h-.4C178.33,138.68,178.09,138.79,177.87,138.9Z"/><path class="cls-2" d="M115.17,222.87a.29.29,0,0,1,.11-.2C115.22,222.5,115.17,222.5,115.17,222.87Z"/><path class="cls-2" d="M134.46,160.05l0-.05a.15.15,0,0,0,0-.08Z"/><path class="cls-2" d="M153.63,279.38a4.67,4.67,0,0,1-.65-.51S153.07,279.05,153.63,279.38Z"/><path class="cls-2" d="M194.45,286.55l-1.27.1a5.89,5.89,0,0,1,1.15.05C194.3,286.64,194.05,286.57,194.45,286.55Z"/><path class="cls-2" d="M205.67,286.68c.18-.07.4-.09.57-.16l-.07-.1C205.38,286.6,204.85,286.8,205.67,286.68Z"/><path class="cls-2" d="M195.67,287.28c.12.2.92.07,1.81,0h-.16C197.56,287,196.62,287.12,195.67,287.28Z"/><path class="cls-2" d="M197.69,287.22l.83-.08C198.61,287,198.18,287.16,197.69,287.22Z"/><path class="cls-2" d="M186.44,286.77c.42.08.28-.25.51-.15C187.44,286.39,184.12,286.77,186.44,286.77Z"/><polygon class="cls-2" points="196.45 287.89 196.1 287.67 195.61 287.91 196.45 287.89"/><path class="cls-2" d="M189.29,287.9l1.45.09c0-.05.16-.07.38-.08A10.11,10.11,0,0,0,189.29,287.9Z"/><path class="cls-2" d="M191.12,287.91a5.59,5.59,0,0,0,1.17-.06Z"/><polygon class="cls-2" points="194.47 288.1 194.04 288.06 193.02 288.07 194.47 288.1"/><path class="cls-2" d="M173.89,285.93l-1.55-.31c-.17.05.23.2.81.31C173.53,286,174.11,286.07,173.89,285.93Z"/><path class="cls-2" d="M178.46,287.54a2,2,0,0,1-.66-.3l-.1.3Z"/><path class="cls-2" d="M173.89,286.71c-.17,0-2.31-.31-.34.15C173.73,286.82,175.3,287.13,173.89,286.71Z"/><polygon class="cls-2" points="151.91 277.42 152.26 277.62 152.48 277.15 151.91 277.42"/><path class="cls-2" d="M134.71,265c1.22,1.47.54.11,1.61,1.47.39.24-.88-1.11-.49-.85C135,264.92,134.59,264.43,134.71,265Z"/><path class="cls-2" d="M135.83,265.66l.46.37C136,265.82,135.92,265.72,135.83,265.66Z"/><polygon class="cls-2" points="244.22 160.38 244.97 161.31 244.56 160.64 244.22 160.38"/><path class="cls-2" d="M246.07,161.78l0,.42.7.34A3.42,3.42,0,0,1,246.07,161.78Z"/><path class="cls-2" d="M115.41,195.51l.06.11a3,3,0,0,0,.32-1Z"/><path class="cls-2" d="M121,179.8a2.1,2.1,0,0,0-.13.26c.15-.13.33-.24.5-.36Z"/><path class="cls-2" d="M127.76,167.52c-.34.46-.67,1-1,1.51C127.42,168,128.15,167.6,127.76,167.52Z"/><text class="cls-3" transform="translate(260.19 171.05) scale(1 0.86)">Sy<tspan class="cls-4" x="79.73" y="0">s</tspan><tspan class="cls-5" x="112.64" y="0">tem</tspan><tspan class="cls-6"><tspan x="0" y="67.44">L</tspan><tspan class="cls-7" x="35.27" y="67.44">ev</tspan><tspan class="cls-8" x="120.19" y="67.44">el</tspan></tspan><tspan x="0" y="134.88">Solutions</tspan></text></g></g></svg>