<svg xmlns="http://www.w3.org/2000/svg" viewBox="0 0 1025.95 227.98"><defs><style>.cls-1,.cls-2,.cls-3{fill:none;stroke:#fff;stroke-miterlimit:10;}.cls-1{stroke-width:2px;}.cls-3{stroke-width:4px;}.cls-4{fill:#fff;}</style></defs><g id="Layer_2" data-name="Layer 2"><g id="Layer_1-2" data-name="Layer 1"><circle class="cls-1" cx="163.53" cy="26.05" r="25.05"/><circle class="cls-2" cx="179.67" cy="205.71" r="16.07"/><circle class="cls-3" cx="48.96" cy="190.02" r="35.96"/><circle class="cls-3" cx="25.04" cy="35.48" r="23.04"/><circle class="cls-2" cx="68.76" cy="103.51" r="15.03"/><circle class="cls-4" cx="51.33" cy="50.41" r="2.44"/><circle class="cls-4" cx="61.56" cy="56.65" r="2.44"/><circle class="cls-4" cx="71.79" cy="62.88" r="2.44"/><circle class="cls-4" cx="82.02" cy="69.12" r="2.44"/><circle class="cls-4" cx="92.25" cy="75.36" r="2.44"/><circle class="cls-4" cx="102.48" cy="81.6" r="2.44"/><circle class="cls-4" cx="112.71" cy="87.83" r="2.44"/><circle class="cls-4" cx="92.67" cy="108.91" r="2.44"/><circle class="cls-4" cx="104.5" cy="110.82" r="2.44"/><circle class="cls-4" cx="176.33" cy="177.94" r="2.44"/><circle class="cls-4" cx="164.51" cy="60.2" r="2.44"/><circle class="cls-4" cx="87" cy="170.56" r="2.44"/><circle class="cls-4" cx="96.98" cy="163.94" r="2.44"/><circle class="cls-4" cx="106.97" cy="157.32" r="2.44"/><circle class="cls-4" cx="116.96" cy="150.7" r="2.44"/><path class="cls-4" d="M168.74,157.48a41.93,41.93,0,0,1-16.55-2.77,49.47,49.47,0,0,1-13.34-8.39,2.7,2.7,0,0,1-.49-.58,1.76,1.76,0,0,1-.25-1,2.28,2.28,0,0,1,.87-1.65,2.67,2.67,0,0,1,1.85-.79,3,3,0,0,1,2.1,1,33.21,33.21,0,0,0,11.54,7.44,38,38,0,0,0,13.77,2.55,33.44,33.44,0,0,0,11.24-1.76,18.08,18.08,0,0,0,7.78-5,11.17,11.17,0,0,0,2.84-7.59,12.08,12.08,0,0,0-3.46-8.71,25.91,25.91,0,0,0-8.58-5.42q-5.25-2.12-11.05-3.93-4.57-1.48-9-3.07a40.32,40.32,0,0,1-8-3.88,17.49,17.49,0,0,1-5.68-5.74,16.17,16.17,0,0,1-2.1-8.55,14.89,14.89,0,0,1,3.27-9.39,22.16,22.16,0,0,1,9.38-6.69A38.22,38.22,0,0,1,169.36,81a43.88,43.88,0,0,1,13.7,2.18,23.17,23.17,0,0,1,10.5,6.53A4.33,4.33,0,0,1,194.79,92a2,2,0,0,1-.92,1.49,3.22,3.22,0,0,1-2,.74,2.1,2.1,0,0,1-1.6-.64,21.86,21.86,0,0,0-5.38-4.41,27.19,27.19,0,0,0-7.1-2.86,36,36,0,0,0-19.39.69,19.26,19.26,0,0,0-7.9,4.83,10.81,10.81,0,0,0-3,7.7,10.62,10.62,0,0,0,3.27,8,26.19,26.19,0,0,0,8.34,5.2q5.05,2.07,10.37,3.77,4.7,1.38,9.32,3a40,40,0,0,1,8.4,4.09,18.74,18.74,0,0,1,6,6.16,18,18,0,0,1,2.22,9.34,14.26,14.26,0,0,1-3.27,9,23,23,0,0,1-9.2,6.69A37.22,37.22,0,0,1,168.74,157.48Z"/><path class="cls-4" d="M238.94,128.63a2.05,2.05,0,0,1,1.2.32.92.92,0,0,1,.46.76v24.06A10.75,10.75,0,0,1,238,161a16.31,16.31,0,0,1-7,4.63A29,29,0,0,1,221,167.2a36.35,36.35,0,0,1-6.85-.59,22.71,22.71,0,0,1-4.93-1.46,2.73,2.73,0,0,1-.92-.64.58.58,0,0,1,0-.81,1.7,1.7,0,0,1,1-.6,1.72,1.72,0,0,1,1.2.11c.94.36,2.37.79,4.28,1.3a25.4,25.4,0,0,0,6.43.75,22.19,22.19,0,0,0,8.42-1.46,13.38,13.38,0,0,0,5.65-4,9.48,9.48,0,0,0,2-6v-4l.17,1.35a10.75,10.75,0,0,1-3.53,2.94,23,23,0,0,1-5.31,2.1,23.78,23.78,0,0,1-6.1.78,22.86,22.86,0,0,1-8.43-1.32,10,10,0,0,1-4.81-3.64,9.6,9.6,0,0,1-1.54-5.45V129.71a.92.92,0,0,1,.46-.76,2.05,2.05,0,0,1,1.2-.32,2.11,2.11,0,0,1,1.21.32.94.94,0,0,1,.45.76v16.83a7.65,7.65,0,0,0,2.62,6.1q2.61,2.27,8.84,2.26a20.67,20.67,0,0,0,7.09-1.21,16.5,16.5,0,0,0,5.52-3.16,5.46,5.46,0,0,0,2.16-4V129.71a.92.92,0,0,1,.46-.76A2.05,2.05,0,0,1,238.94,128.63Z"/><path class="cls-4" d="M248.82,152.1a1.58,1.58,0,0,1-.54-1.06c0-.26.23-.49.62-.67a1.89,1.89,0,0,1,1.12-.24,2.08,2.08,0,0,1,1.2.4,16.45,16.45,0,0,0,5.52,3.24,22.89,22.89,0,0,0,7.93,1.24,23.32,23.32,0,0,0,5.27-.59,11.41,11.41,0,0,0,4.15-1.78,3.52,3.52,0,0,0,1.62-2.92,3.44,3.44,0,0,0-1.58-2.94,12.63,12.63,0,0,0-4.06-1.75c-1.66-.43-3.41-.79-5.23-1.08s-3.78-.69-5.52-1.11a23,23,0,0,1-4.61-1.56,9.79,9.79,0,0,1-3.15-2.24,4.43,4.43,0,0,1-1.17-3.07,5.12,5.12,0,0,1,1.75-3.78,11.9,11.9,0,0,1,4.9-2.62,25.46,25.46,0,0,1,7.3-.94,30.41,30.41,0,0,1,4.23.32,24.24,24.24,0,0,1,4.48,1.11,15.68,15.68,0,0,1,4.15,2.18c.45.22.65.48.63.79a1.18,1.18,0,0,1-.63.83,2.58,2.58,0,0,1-1.08.22,1.55,1.55,0,0,1-1-.33,15.15,15.15,0,0,0-5-2.32,24,24,0,0,0-6.1-.75,21.26,21.26,0,0,0-5.11.59A10.37,10.37,0,0,0,255,133a3.58,3.58,0,0,0-1.49,2.94,3.67,3.67,0,0,0,1.78,2.75,14.37,14.37,0,0,0,4.32,1.78q2.7.7,6.1,1.29,2.75.44,5.1,1a20.94,20.94,0,0,1,4.15,1.43,8.21,8.21,0,0,1,2.83,2.16,5,5,0,0,1,1,3.24,5.06,5.06,0,0,1-1.86,3.91,12.79,12.79,0,0,1-5.15,2.53,28.5,28.5,0,0,1-7.51.89,30,30,0,0,1-8.3-1.13A20.52,20.52,0,0,1,248.82,152.1Z"/><path class="cls-4" d="M283.51,129.28h19.26a1.87,1.87,0,0,1,1.12.32.9.9,0,0,1,.45.7.86.86,0,0,1-.45.73,2,2,0,0,1-1.12.3H283.51a1.91,1.91,0,0,1-1.08-.33.89.89,0,0,1-.5-.7.86.86,0,0,1,.5-.73A2.13,2.13,0,0,1,283.51,129.28Zm8.47-7.93a2,2,0,0,1,1.2.32.93.93,0,0,1,.46.75v28.11a4,4,0,0,0,.7,2.62,3.18,3.18,0,0,0,1.79,1.08,9.54,9.54,0,0,0,2.07.24,3.68,3.68,0,0,0,1-.11,4,4,0,0,1,1-.11,1.67,1.67,0,0,1,1,.3.83.83,0,0,1,.42.68c0,.32-.32.6-1,.83a6.75,6.75,0,0,1-2.36.35l-1.79,0a9.74,9.74,0,0,1-2.74-.49,5.07,5.07,0,0,1-2.45-1.67,5.59,5.59,0,0,1-1-3.59V122.42a.89.89,0,0,1,.5-.75A2,2,0,0,1,292,121.35Z"/><path class="cls-4" d="M329.41,157a32.28,32.28,0,0,1-11-1.72,17.62,17.62,0,0,1-7.51-4.89,11,11,0,0,1-2.74-7.41,11.52,11.52,0,0,1,2.7-7.72,17.33,17.33,0,0,1,7-4.88,24.44,24.44,0,0,1,9.09-1.7,31.5,31.5,0,0,1,6.81.73,20.09,20.09,0,0,1,5.93,2.26,13.38,13.38,0,0,1,4.23,3.83,10.22,10.22,0,0,1,1.79,5.48,1,1,0,0,1-.5.78,1.92,1.92,0,0,1-1.16.35H310.15l-.49-2.05h33.45l-.83.49v-1a7.43,7.43,0,0,0-2.79-4.8,16.13,16.13,0,0,0-5.68-2.95,24,24,0,0,0-6.89-1,20.19,20.19,0,0,0-5.23.73,17.77,17.77,0,0,0-5.06,2.21,12.3,12.3,0,0,0-3.78,3.75,9.55,9.55,0,0,0-1.45,5.28,10,10,0,0,0,2,6.05,14,14,0,0,0,6.06,4.42,25.84,25.84,0,0,0,9.92,1.67,21.59,21.59,0,0,0,5.31-.62,20.52,20.52,0,0,0,4.48-1.64,13.78,13.78,0,0,0,3.24-2.22,2.35,2.35,0,0,1,1.41-.48,1.67,1.67,0,0,1,1,.3.83.83,0,0,1,.41.67.82.82,0,0,1-.33.65,24.16,24.16,0,0,1-6.6,3.77A23.69,23.69,0,0,1,329.41,157Z"/><path class="cls-4" d="M372.16,129.17a21.58,21.58,0,0,1,8.5,1.64,9.29,9.29,0,0,1,5.27,5.16l-1.08.48.42-1a9.26,9.26,0,0,1,3.78-3.19,28.72,28.72,0,0,1,12.57-3.07,20.9,20.9,0,0,1,8.22,1.4,10.48,10.48,0,0,1,4.77,3.75,9.52,9.52,0,0,1,1.54,5.31v15.7a1,1,0,0,1-.46.76,2.43,2.43,0,0,1-2.41,0,.94.94,0,0,1-.45-.76V139.85a7.92,7.92,0,0,0-4.94-7.47,16,16,0,0,0-6.6-1.16,21.5,21.5,0,0,0-7,1.16,16.09,16.09,0,0,0-5.61,3.13,5.79,5.79,0,0,0-2.2,4.34v15.48a.94.94,0,0,1-.45.76,2,2,0,0,1-1.21.32,2,2,0,0,1-1.2-.32.94.94,0,0,1-.45-.76V139.58a8.07,8.07,0,0,0-1.13-4.21,7.79,7.79,0,0,0-3.52-3,15.28,15.28,0,0,0-6.39-1.13,20.73,20.73,0,0,0-6.77,1.13,16.22,16.22,0,0,0-5.44,3,5.54,5.54,0,0,0-2.15,4.21v15.75a.93.93,0,0,1-.5.76,2.35,2.35,0,0,1-2.37,0,.94.94,0,0,1-.45-.76V130.57a.89.89,0,0,1,.49-.75,2.08,2.08,0,0,1,1.17-.33,2,2,0,0,1,1.2.33.92.92,0,0,1,.46.75v5.88l-2.49,2.75a5.86,5.86,0,0,1,1.41-3.67,14.26,14.26,0,0,1,3.77-3.21,22.45,22.45,0,0,1,5.4-2.29A23,23,0,0,1,372.16,129.17Z"/><path class="cls-4" d="M500.77,152.16a2.61,2.61,0,0,1,1.73.64,1.93,1.93,0,0,1,.74,1.49,1.87,1.87,0,0,1-.74,1.54,2.72,2.72,0,0,1-1.73.58H455.45a2.52,2.52,0,0,1-1.79-.63,2,2,0,0,1-.68-1.49V84.2a1.89,1.89,0,0,1,.74-1.49,3,3,0,0,1,3.7,0,1.89,1.89,0,0,1,.74,1.49v69.88l-2.22-1.92Z"/><path class="cls-4" d="M529.79,157a32.28,32.28,0,0,1-11-1.72,17.62,17.62,0,0,1-7.51-4.89,10.91,10.91,0,0,1-2.74-7.41,11.52,11.52,0,0,1,2.7-7.72,17.33,17.33,0,0,1,7-4.88,24.44,24.44,0,0,1,9.09-1.7,31.5,31.5,0,0,1,6.81.73,20.09,20.09,0,0,1,5.93,2.26,13.49,13.49,0,0,1,4.23,3.83,10.22,10.22,0,0,1,1.79,5.48,1,1,0,0,1-.5.78,1.92,1.92,0,0,1-1.16.35H510.53L510,140h33.44l-.83.49v-1a7.37,7.37,0,0,0-2.78-4.8,16.13,16.13,0,0,0-5.68-2.95,24,24,0,0,0-6.89-1,20.19,20.19,0,0,0-5.23.73,17.65,17.65,0,0,0-5.06,2.21,12.3,12.3,0,0,0-3.78,3.75,9.55,9.55,0,0,0-1.45,5.28,9.93,9.93,0,0,0,2,6.05,14,14,0,0,0,6.06,4.42,25.8,25.8,0,0,0,9.92,1.67,21.59,21.59,0,0,0,5.31-.62,20.52,20.52,0,0,0,4.48-1.64,13.78,13.78,0,0,0,3.24-2.22,2.35,2.35,0,0,1,1.41-.48,1.67,1.67,0,0,1,1,.3.83.83,0,0,1,.41.67.82.82,0,0,1-.33.65,24.31,24.31,0,0,1-6.6,3.77A23.69,23.69,0,0,1,529.79,157Z"/><path class="cls-4" d="M552.45,128.52a2.17,2.17,0,0,1,.87.19,1.2,1.2,0,0,1,.62.51l15.36,23.9-.83.38,15.6-24.28a1.87,1.87,0,0,1,1.75-.7,2.84,2.84,0,0,1,1,.22c.39.14.58.36.58.64a.87.87,0,0,1-.08.41,2.49,2.49,0,0,1-.17.24l-16.51,25.68a1.69,1.69,0,0,1-1.58.7,2.37,2.37,0,0,1-.95-.19,1.11,1.11,0,0,1-.63-.51l-16.6-25.62a1.15,1.15,0,0,1-.12-.25.75.75,0,0,1,0-.24.94.94,0,0,1,.41-.76A2.22,2.22,0,0,1,552.45,128.52Z"/><path class="cls-4" d="M613.29,157a32.28,32.28,0,0,1-11-1.72,17.62,17.62,0,0,1-7.51-4.89,10.91,10.91,0,0,1-2.74-7.41,11.52,11.52,0,0,1,2.7-7.72,17.33,17.33,0,0,1,7-4.88,24.44,24.44,0,0,1,9.09-1.7,31.34,31.34,0,0,1,6.8.73,20,20,0,0,1,5.94,2.26,13.49,13.49,0,0,1,4.23,3.83,10.22,10.22,0,0,1,1.79,5.48,1,1,0,0,1-.5.78,1.92,1.92,0,0,1-1.16.35H594l-.5-2.05H627l-.83.49v-1a7.37,7.37,0,0,0-2.78-4.8,16.13,16.13,0,0,0-5.68-2.95,24,24,0,0,0-6.89-1,20.19,20.19,0,0,0-5.23.73,17.53,17.53,0,0,0-5.06,2.21,12.3,12.3,0,0,0-3.78,3.75,9.55,9.55,0,0,0-1.45,5.28,9.93,9.93,0,0,0,2,6.05,14,14,0,0,0,6.06,4.42,25.8,25.8,0,0,0,9.92,1.67,21.59,21.59,0,0,0,5.31-.62,20.72,20.72,0,0,0,4.48-1.64,13.78,13.78,0,0,0,3.24-2.22,2.35,2.35,0,0,1,1.41-.48,1.67,1.67,0,0,1,1,.3.83.83,0,0,1,.41.67.82.82,0,0,1-.33.65,24.46,24.46,0,0,1-6.6,3.77A23.69,23.69,0,0,1,613.29,157Z"/><path class="cls-4" d="M642.09,155.33a.93.93,0,0,1-.5.76,2,2,0,0,1-1.16.32,2,2,0,0,1-1.2-.32.92.92,0,0,1-.46-.76V117.57a.93.93,0,0,1,.5-.76,2.12,2.12,0,0,1,1.16-.32,2.05,2.05,0,0,1,1.2.32.92.92,0,0,1,.46.76Z"/><path class="cls-4" d="M721.94,157.48a41.93,41.93,0,0,1-16.55-2.77,49.47,49.47,0,0,1-13.34-8.39,2.7,2.7,0,0,1-.49-.58,1.76,1.76,0,0,1-.25-1,2.28,2.28,0,0,1,.87-1.65,2.67,2.67,0,0,1,1.85-.79,3,3,0,0,1,2.1,1,33.21,33.21,0,0,0,11.54,7.44,38,38,0,0,0,13.77,2.55,33.44,33.44,0,0,0,11.24-1.76,18.08,18.08,0,0,0,7.78-5,11.17,11.17,0,0,0,2.84-7.59,12.08,12.08,0,0,0-3.46-8.71,25.91,25.91,0,0,0-8.58-5.42q-5.25-2.12-11-3.93-4.58-1.48-9-3.07a40.32,40.32,0,0,1-8-3.88,17.49,17.49,0,0,1-5.68-5.74,16.17,16.17,0,0,1-2.1-8.55,14.89,14.89,0,0,1,3.27-9.39A22.16,22.16,0,0,1,708,83.51,38.22,38.22,0,0,1,722.56,81a43.88,43.88,0,0,1,13.7,2.18,23.17,23.17,0,0,1,10.5,6.53A4.33,4.33,0,0,1,748,92a2,2,0,0,1-.92,1.49,3.22,3.22,0,0,1-2,.74,2.1,2.1,0,0,1-1.6-.64,21.86,21.86,0,0,0-5.38-4.41,27.19,27.19,0,0,0-7.1-2.86,36,36,0,0,0-19.39.69,19.26,19.26,0,0,0-7.9,4.83,10.81,10.81,0,0,0-3,7.7,10.62,10.62,0,0,0,3.27,8,26.19,26.19,0,0,0,8.34,5.2q5.06,2.07,10.37,3.77,4.7,1.38,9.32,3a40,40,0,0,1,8.4,4.09,18.74,18.74,0,0,1,6,6.16,18,18,0,0,1,2.22,9.34,14.26,14.26,0,0,1-3.27,9,23,23,0,0,1-9.2,6.69A37.22,37.22,0,0,1,721.94,157.48Z"/><path class="cls-4" d="M799.28,142.82a11,11,0,0,1-2.66,7.2,17.88,17.88,0,0,1-7.26,5.07,30.45,30.45,0,0,1-21,0,18.1,18.1,0,0,1-7.34-5.07,11,11,0,0,1,0-14.46,18.1,18.1,0,0,1,7.34-5.07,30.45,30.45,0,0,1,21,0,17.88,17.88,0,0,1,7.26,5.07A11.09,11.09,0,0,1,799.28,142.82Zm-3.32,0a9.66,9.66,0,0,0-2.2-6.23,14.89,14.89,0,0,0-6.06-4.32,25.26,25.26,0,0,0-17.64,0,15.11,15.11,0,0,0-6.14,4.32,9.7,9.7,0,0,0,0,12.4,15.11,15.11,0,0,0,6.14,4.32,25.26,25.26,0,0,0,17.64,0,14.89,14.89,0,0,0,6.06-4.32A9.58,9.58,0,0,0,796,142.82Z"/><path class="cls-4" d="M811.81,155.33a.93.93,0,0,1-.5.76,2,2,0,0,1-1.16.32,2,2,0,0,1-1.2-.32.92.92,0,0,1-.46-.76V117.57a.93.93,0,0,1,.5-.76,2.12,2.12,0,0,1,1.16-.32,2.05,2.05,0,0,1,1.2.32.92.92,0,0,1,.46.76Z"/><path class="cls-4" d="M854.47,129.49a2,2,0,0,1,1.21.33.91.91,0,0,1,.45.75v15.7a8.51,8.51,0,0,1-4.52,7.85q-4.53,2.63-12,2.62t-11.92-2.62a8.51,8.51,0,0,1-4.52-7.85v-15.7a.9.9,0,0,1,.5-.75,2,2,0,0,1,1.16-.33,2,2,0,0,1,1.2.33.9.9,0,0,1,.46.75v15.7a6.93,6.93,0,0,0,3.53,6.26q3.53,2.16,9.59,2.16t9.66-2.16a6.91,6.91,0,0,0,3.53-6.26v-15.7a.9.9,0,0,1,.46-.75A2,2,0,0,1,854.47,129.49Z"/><path class="cls-4" d="M863.69,129.28h19.25a1.85,1.85,0,0,1,1.12.32.89.89,0,0,1,.46.7.85.85,0,0,1-.46.73,2,2,0,0,1-1.12.3H863.69a1.91,1.91,0,0,1-1.08-.33.86.86,0,0,1-.5-.7.84.84,0,0,1,.5-.73A2.13,2.13,0,0,1,863.69,129.28Zm8.46-7.93a2,2,0,0,1,1.2.32.91.91,0,0,1,.46.75v28.11a4,4,0,0,0,.71,2.62,3.15,3.15,0,0,0,1.78,1.08,9.56,9.56,0,0,0,2.08.24,3.65,3.65,0,0,0,1-.11,4.13,4.13,0,0,1,1-.11,1.64,1.64,0,0,1,1,.3.83.83,0,0,1,.42.68c0,.32-.32.6-.95.83a6.81,6.81,0,0,1-2.37.35l-1.79,0a9.67,9.67,0,0,1-2.73-.49,5,5,0,0,1-2.45-1.67,5.53,5.53,0,0,1-1-3.59V122.42a.91.91,0,0,1,.5-.75A2,2,0,0,1,872.15,121.35Z"/><path class="cls-4" d="M893,125a3.92,3.92,0,0,1-2.11-.49,1.41,1.41,0,0,1-.79-1.24v-.43a1.41,1.41,0,0,1,.83-1.24,4.27,4.27,0,0,1,2.16-.48,3.71,3.71,0,0,1,1.95.48,1.44,1.44,0,0,1,.79,1.24v.43a1.43,1.43,0,0,1-.79,1.24A3.81,3.81,0,0,1,893,125Zm1.66,30.37a.92.92,0,0,1-.49.76,2.08,2.08,0,0,1-1.17.32,2,2,0,0,1-1.2-.32,1,1,0,0,1-.46-.76V129.71a.93.93,0,0,1,.5-.76,2.35,2.35,0,0,1,2.37,0,.94.94,0,0,1,.45.76Z"/><path class="cls-4" d="M944.36,142.82a11,11,0,0,1-2.66,7.2,17.88,17.88,0,0,1-7.26,5.07,30.45,30.45,0,0,1-21,0,18.17,18.17,0,0,1-7.34-5.07,11,11,0,0,1,0-14.46,18.17,18.17,0,0,1,7.34-5.07,30.45,30.45,0,0,1,21,0,17.88,17.88,0,0,1,7.26,5.07A11.09,11.09,0,0,1,944.36,142.82Zm-3.32,0a9.61,9.61,0,0,0-2.2-6.23,14.89,14.89,0,0,0-6.06-4.32,25.26,25.26,0,0,0-17.64,0,15.18,15.18,0,0,0-6.14,4.32,9.7,9.7,0,0,0,0,12.4,15.18,15.18,0,0,0,6.14,4.32,25.26,25.26,0,0,0,17.64,0,14.89,14.89,0,0,0,6.06-4.32A9.52,9.52,0,0,0,941,142.82Z"/><path class="cls-4" d="M972,128.63a22.58,22.58,0,0,1,8.5,1.35,10.22,10.22,0,0,1,4.82,3.67,9.18,9.18,0,0,1,1.53,5.18v16.5a.92.92,0,0,1-.49.76,2.08,2.08,0,0,1-1.17.32,2,2,0,0,1-1.2-.32,1,1,0,0,1-.46-.76V139a7.68,7.68,0,0,0-1.2-4.21,8.2,8.2,0,0,0-3.82-3,17.48,17.48,0,0,0-6.84-1.13,23.08,23.08,0,0,0-7.14,1.13,17.37,17.37,0,0,0-5.77,3,5.43,5.43,0,0,0-2.28,4.21v16.29a.93.93,0,0,1-.5.76,2.35,2.35,0,0,1-2.37,0,.94.94,0,0,1-.45-.76V130.57a.89.89,0,0,1,.49-.75,2.08,2.08,0,0,1,1.17-.33,2,2,0,0,1,1.2.33.92.92,0,0,1,.46.75v5.29l-2.08,2.59a5.55,5.55,0,0,1,1.58-3.72,14.69,14.69,0,0,1,4.15-3.16,24.61,24.61,0,0,1,5.68-2.16A25.43,25.43,0,0,1,972,128.63Z"/><path class="cls-4" d="M995.9,152.1a1.58,1.58,0,0,1-.54-1.06c0-.26.24-.49.63-.67a1.85,1.85,0,0,1,1.12-.24,2.08,2.08,0,0,1,1.2.4,16.45,16.45,0,0,0,5.52,3.24,22.79,22.79,0,0,0,7.92,1.24,23.41,23.41,0,0,0,5.28-.59,11.49,11.49,0,0,0,4.15-1.78,3.54,3.54,0,0,0,1.61-2.92,3.43,3.43,0,0,0-1.57-2.94,12.79,12.79,0,0,0-4.07-1.75q-2.49-.65-5.23-1.08-2.91-.48-5.52-1.11a23.24,23.24,0,0,1-4.61-1.56,9.9,9.9,0,0,1-3.15-2.24,4.46,4.46,0,0,1-1.16-3.07,5.11,5.11,0,0,1,1.74-3.78,12,12,0,0,1,4.9-2.62,25.51,25.51,0,0,1,7.3-.94,30.66,30.66,0,0,1,4.24.32,24.64,24.64,0,0,1,4.48,1.11,16,16,0,0,1,4.15,2.18c.44.22.65.48.62.79a1.2,1.2,0,0,1-.62.83,2.58,2.58,0,0,1-1.08.22,1.56,1.56,0,0,1-1-.33,15.15,15.15,0,0,0-5-2.32,24,24,0,0,0-6.1-.75,21.11,21.11,0,0,0-5.1.59,10.22,10.22,0,0,0-3.86,1.76,3.56,3.56,0,0,0-1.5,2.94,3.68,3.68,0,0,0,1.79,2.75,14.3,14.3,0,0,0,4.31,1.78q2.7.7,6.1,1.29,2.74.44,5.11,1a20.94,20.94,0,0,1,4.15,1.43,8.07,8.07,0,0,1,2.82,2.16,5.24,5.24,0,0,1-.83,7.15,12.79,12.79,0,0,1-5.15,2.53,28.44,28.44,0,0,1-7.51.89,30,30,0,0,1-8.3-1.13A20.6,20.6,0,0,1,995.9,152.1Z"/><circle class="cls-3" cx="244.65" cy="53.48" r="15.03"/><circle class="cls-4" cx="228.03" cy="75.29" r="2.44"/><circle class="cls-4" cx="220.05" cy="84.24" r="2.44"/></g></g></svg>