<svg xmlns="http://www.w3.org/2000/svg" viewBox="0 0 390.23 407.36"><defs><style>.cls-1{fill:none;stroke:#1a7e89;stroke-miterlimit:10;stroke-width:4px;}.cls-2{fill:#1a7e89;}</style></defs><g id="Layer_2" data-name="Layer 2"><g id="Layer_1-2" data-name="Layer 1"><circle class="cls-1" cx="190.67" cy="49.83" r="47.83"/><circle class="cls-1" cx="213.94" cy="353.93" r="32.83"/><circle class="cls-1" cx="79.28" cy="354.12" r="51.24"/><circle class="cls-1" cx="34.83" cy="91.09" r="32.83"/><circle class="cls-1" cx="37.44" cy="212.32" r="21.42"/><circle class="cls-2" cx="71.23" cy="120.83" r="3.48"/><circle class="cls-2" cx="84.23" cy="131.52" r="3.48"/><circle class="cls-2" cx="97.22" cy="142.2" r="3.48"/><circle class="cls-2" cx="110.22" cy="152.89" r="3.48"/><circle class="cls-2" cx="73.8" cy="212.66" r="3.48"/><circle class="cls-2" cx="90.6" cy="213.42" r="3.48"/><circle class="cls-2" cx="132.99" cy="284.05" r="2.7"/><circle class="cls-2" cx="125.08" cy="294.45" r="2.7"/><circle class="cls-2" cx="117.17" cy="304.85" r="2.7"/><circle class="cls-2" cx="204.37" cy="307.32" r="3.48"/><circle class="cls-2" cx="188.57" cy="107.58" r="3.48"/><circle class="cls-2" cx="188.72" cy="124.41" r="3.48"/><circle class="cls-1" cx="328.05" cy="165.05" r="23.6"/><circle class="cls-2" cx="268.44" cy="180.89" r="2.7"/><circle class="cls-2" cx="281.08" cy="177.59" r="2.7"/><circle class="cls-2" cx="293.72" cy="174.29" r="2.7"/><circle class="cls-1" cx="355.39" cy="285.35" r="32.83"/><circle class="cls-2" cx="313.41" cy="264.2" r="3.48"/><circle class="cls-2" cx="298.4" cy="256.59" r="3.48"/><circle class="cls-2" cx="283.4" cy="248.97" r="3.48"/><circle class="cls-2" cx="268.39" cy="241.36" r="3.48"/><circle class="cls-1" cx="184.69" cy="209.24" r="65.47"/></g></g></svg>