<svg xmlns="http://www.w3.org/2000/svg" viewBox="0 0 256.71 229.38"><defs><style>.cls-1{fill:none;stroke:#fff;stroke-miterlimit:10;stroke-width:4px;}.cls-2,.cls-3{fill:#fff;}.cls-3{font-size:69px;font-family:CaviarDreams, Caviar Dreams;letter-spacing:0.08em;}</style></defs><g id="Layer_2" data-name="Layer 2"><g id="Layer_1-2" data-name="Layer 1"><circle class="cls-1" cx="107.42" cy="28.72" r="26.72"/><circle class="cls-1" cx="120.42" cy="198.64" r="18.34"/><circle class="cls-1" cx="45.18" cy="198.75" r="28.63"/><circle class="cls-1" cx="20.35" cy="51.78" r="18.34"/><circle class="cls-1" cx="21.8" cy="119.52" r="11.97"/><circle class="cls-2" cx="40.68" cy="68.4" r="1.94"/><circle class="cls-2" cx="47.94" cy="74.37" r="1.94"/><circle class="cls-2" cx="55.21" cy="80.34" r="1.94"/><circle class="cls-2" cx="62.47" cy="86.31" r="1.94"/><circle class="cls-2" cx="42.12" cy="119.71" r="1.94"/><circle class="cls-2" cx="51.51" cy="120.13" r="1.94"/><circle class="cls-2" cx="75.19" cy="159.59" r="1.51"/><circle class="cls-2" cx="70.77" cy="165.41" r="1.51"/><circle class="cls-2" cx="66.35" cy="171.22" r="1.51"/><circle class="cls-2" cx="115.07" cy="172.6" r="1.94"/><circle class="cls-2" cx="106.24" cy="60.99" r="1.94"/><circle class="cls-2" cx="106.33" cy="70.39" r="1.94"/><text class="cls-3" transform="translate(135.35 144.24) scale(1 0.86)">SLS</text><path class="cls-2" d="M137.62,147.57c.22-.2,0-.26,0-.32C137.31,147.62,137.67,147.6,137.62,147.57Z"/><polygon class="cls-2" points="134.44 151.23 134.45 151.11 134.03 151.73 134.44 151.23"/><path class="cls-2" d="M130.81,154c.55,0,1.37-.93,2.05-1.36l.15,0,.11-.46A11.11,11.11,0,0,1,130.81,154Z"/><path class="cls-2" d="M128.38,154.63c.2,0-.39.35.51-.24l-.1,0Z"/><path class="cls-2" d="M128.79,154.42c.39-.25-.33.05,0,0Z"/><path class="cls-2" d="M126.92,155.53l.48-.41c-.15,0-.64.24-.49.09C126.39,155.58,126.54,155.59,126.92,155.53Z"/><path class="cls-2" d="M126.52,156.05l.26-.21C126.72,155.84,126.64,155.87,126.52,156.05Z"/><path class="cls-2" d="M127.33,155.42l-.55.42c.11,0,.17.11.26-.18C127,155.78,127.11,155.62,127.33,155.42Z"/><path class="cls-2" d="M127.7,155.28c.34-.1.76-.28.27.13C129,154.79,128.71,154.66,127.7,155.28Z"/><path class="cls-2" d="M130.82,154.41l.46-.18.27-.33C131.42,154.06,130.74,154.33,130.82,154.41Z"/><path class="cls-2" d="M123.36,157c0,.08.27.1.35.17l.39-.26C123.86,157,123.43,157.12,123.36,157Z"/><path class="cls-2" d="M123.71,157.2l-.58.4C123.7,157.36,123.78,157.26,123.71,157.2Z"/><polygon class="cls-2" points="126.61 156.45 127.48 155.66 126.41 156.56 126.61 156.45"/><polygon class="cls-2" points="120.92 157.95 121.23 157.66 120.67 158.13 120.92 157.95"/><path class="cls-2" d="M119.29,158.53c.23-.23-.44-.11-.18-.3a10.24,10.24,0,0,0-1.11.58A5.54,5.54,0,0,1,119.29,158.53Z"/><path class="cls-2" d="M117.45,159.11a5.12,5.12,0,0,0,.55-.3A2.46,2.46,0,0,0,117.45,159.11Z"/><path class="cls-2" d="M122,158a.85.85,0,0,0-.59,0l.33.12Z"/><path class="cls-2" d="M121.78,158.09h0l-.56.17Z"/><path class="cls-2" d="M122.09,158l-.06,0S122.08,158,122.09,158Z"/><path class="cls-2" d="M124.88,157.07c-.32.27-1.06.73-.22.57C124.87,157.39,124.39,157.48,124.88,157.07Z"/><path class="cls-2" d="M122.51,158.12l.69-.25c0-.05-.19-.07,0-.2Z"/><path class="cls-2" d="M122.19,158.31a3.37,3.37,0,0,0,.32-.19,2.76,2.76,0,0,1-.27.08Z"/><path class="cls-2" d="M118.72,159a4.34,4.34,0,0,1-1,.35,8.63,8.63,0,0,0,1.25-.24C119,159.05,119.14,158.88,118.72,159Z"/><path class="cls-2" d="M120.21,158.59l-.06,0S120.23,158.62,120.21,158.59Z"/><polygon class="cls-2" points="113.95 160.14 114.01 160.17 114.02 160.13 113.95 160.14"/><path class="cls-2" d="M119,159.15a1.28,1.28,0,0,0,.63-.29c-.22.09-.45.19-.7.27C119,159.17,119,159.19,119,159.15Z"/><path class="cls-2" d="M116.43,159.45a5.37,5.37,0,0,0,.56,0C116.81,159.41,116.47,159.39,116.43,159.45Z"/><path class="cls-2" d="M120,158.6l0,0C120,158.57,120,158.58,120,158.6Z"/><path class="cls-2" d="M120,158.6a2.09,2.09,0,0,0-.36.26l.48-.24Z"/><path class="cls-2" d="M113,161.67c0-.21.84-.51,1.6-.4.7-.25.11-.83-.56-1.1,0,.09,0,.17-.7.39.27.07,1.65,0,1.07.28-.95.24-.81,0-1.29,0,.44.19-1.18.53-.94.86l.85-.25C113,161.52,112.72,161.65,113,161.67Z"/><path class="cls-2" d="M115.38,160l.29-.09a2.9,2.9,0,0,1-1.06-.08c-.47.16-.56.25-.59.32.49-.07,1-.1,1.46-.2Z"/><path class="cls-2" d="M117,159.58c-.17.26-.86.52-.38.64.86-.21.57-.31,1.06-.53-1.37.38.37-.21-.66-.09a6.7,6.7,0,0,1,.73-.23c-.25,0-.5.06-.73.07h0c.06,0,.09,0,0,0h0a.19.19,0,0,1,0,.1c-.4,0-.07,0,0-.1s0,0,0,0h0l-1.35.44A10,10,0,0,0,117,159.58Z"/><path class="cls-2" d="M124.14,158.37s-.06,0-.07,0S124,158.44,124.14,158.37Z"/><path class="cls-2" d="M123.54,158.49a1,1,0,0,1,.45-.3c.3-.06,0,.09.08.15.17-.13.6-.43,0-.27l-.08.07a3,3,0,0,1-1.26.15A1.84,1.84,0,0,0,123.54,158.49Z"/><path class="cls-2" d="M120.24,159.23l-1.11.48h.64l-.07-.1C120.36,159.43,120.18,159.34,120.24,159.23Z"/><polygon class="cls-2" points="113.8 160.05 113.92 159.81 113.29 160.22 113.8 160.05"/><polygon class="cls-2" points="112.29 160.3 112.32 160.09 111.94 160.27 112.29 160.3"/><path class="cls-2" d="M67.84,102l.09-.36C67.88,101.81,67.86,101.92,67.84,102Z"/><path class="cls-2" d="M66.84,104.46l.06.09C66.9,104.42,66.88,104.36,66.84,104.46Z"/><path class="cls-2" d="M78.18,148.14c-.23-.48-.41-1.07-.53-.88l-.05.26A2.68,2.68,0,0,1,78.18,148.14Z"/><path class="cls-2" d="M65.7,125.67l0,.16.27.31A4.12,4.12,0,0,1,65.7,125.67Z"/><path class="cls-2" d="M64.77,125.42l.07-.71A3.63,3.63,0,0,0,64.77,125.42Z"/><path class="cls-2" d="M75.6,89.82l.14-.46C75.27,89.84,75.56,89.71,75.6,89.82Z"/><path class="cls-2" d="M96.76,159.23a6.71,6.71,0,0,0-1-.45C96.23,159.05,96.58,159.36,96.76,159.23Z"/><path class="cls-2" d="M69.58,103.85c0-.21,0-.31,0-.32C69.52,103.74,69.51,103.87,69.58,103.85Z"/><path class="cls-2" d="M94.57,158.4l.2.11a5.27,5.27,0,0,1,1,.27A2.11,2.11,0,0,0,94.57,158.4Z"/><path class="cls-2" d="M124,79.3l.1.07S124.05,79.33,124,79.3Z"/><path class="cls-2" d="M135.41,89c-.11-.09-.29-.24-.45-.39A3.17,3.17,0,0,0,135.41,89Z"/><path class="cls-2" d="M106.16,160.44c.32,0,0,0,0,0Z"/><path class="cls-2" d="M107.73,161.35c-.07,0-.12.05-.13.1A.26.26,0,0,1,107.73,161.35Z"/><path class="cls-2" d="M91,158.49h0C91.08,158.55,91.07,158.54,91,158.49Z"/><path class="cls-2" d="M106.64,160.55l-.41-.08A2.86,2.86,0,0,0,106.64,160.55Z"/><path class="cls-2" d="M106.58,160.45l.28,0S106.87,160.42,106.58,160.45Z"/><path class="cls-2" d="M105.71,160.43l.52,0c-.06,0-.09,0-.07,0Z"/><path class="cls-2" d="M96.52,78.11h.08C96.9,77.92,96.76,78,96.52,78.11Z"/><path class="cls-2" d="M71.05,142.75l0,0,0-.05Z"/><path class="cls-2" d="M70.24,141.81a1.72,1.72,0,0,1,.82.92l.31-.67Z"/><path class="cls-2" d="M70.79,96.39l-.65.62c.31-1.05.83-1.63.14-1.09.27.24-.24.93-.62,1.69s-.76,1.52-.49,1.73l-.39.44c.08-.15.06-.19.14-.33-.8.85,0,.94-.67,2.18-.24.44-.46.72-.41.37l-.26,1.1c-.13.29-.21.17-.08-.12l-.58,1.59,0,0c0,.26-.06.81-.05,1.1-.21.37,0-.23-.12-.16l-.1,1c-.28.31-.22-.48,0-1.1-.9.63-.06.8-1,2.5l.17-.88c-.53.44-.59,1.15-1.11,2.07.19-.21,1.15-1.79,1-.76a2.57,2.57,0,0,0-.28,1.18c-.23-.06-.28.49-.39,1.15l-.3-.11c-.05.73.12.71.18,1.15-.18.79-.46.92-.7,1.07-.29,1.28.56-.82.34.7a10.26,10.26,0,0,0-.1,3.12c-.18.74-.18-.14-.3.12l.2.68c0,.16-.1.1-.13.08,0,.56.3.06.38.94.35.23-.51,1.8-.1,2.88-.09.27-.2-.12-.32,0a9.11,9.11,0,0,0,.73,2.45l-.1,1.06c.16-.79.54.16.86,1,.08-.29.16-.52.19-.68a9.9,9.9,0,0,0,.36,1.29c0,.17-.16.06-.33-.14l.12.23c0,.49-.25.28-.5,0l.11-.51c-.23-.3-.48-.59-.65-.49a2.27,2.27,0,0,1,.13.43c-.06-.08-.12-.13-.14-.08s0,.18.17.39l-.29.36.15,0,.13,1.8c.31.59.62,1.14,1,1.76a11.91,11.91,0,0,1,1.13,2.24c-.39-.4-.44,0-.74.09.16-.63-.6-1.46-.81-2.5.1.54-.06.46-.16.33l.83,1.73c-.26,0-.07.44,0,.94.38-.51.69,1.25,1.17,1.89-.13.1-.38,0-.67-.89,0,1.09,1,1,1.12,2.07-.09-.21-.11-.33-.22-.38.34.43.72,1.67.47,1.45l-.09-.21a11.36,11.36,0,0,0,.52,1.26c.24.45.5.91.76,1.34.51.85,1,1.52,1.24,1.51a1.72,1.72,0,0,1-.66,0,28.51,28.51,0,0,0,2.63,1.52c-.44,0-.66,1.24-1.53.3a4.72,4.72,0,0,0,.88,1.3c-.09-.24.1-.8.31-.55a7.12,7.12,0,0,0,.54,1.79c-.17-.33.55-.35.89.11-.12,0-.42.38-.6.25l1.36.77c-.31-.21-.42.25-.33.61,0-.19.78,1,1.07,1.24l-.29-.56a2.2,2.2,0,0,0,1.35,1,3,3,0,0,1,1.41.86c-.22-.06-.85.16-.32.79a10.16,10.16,0,0,1,3.34.87l.1.3.94.53a14.64,14.64,0,0,1-1.83-.37,8.53,8.53,0,0,1-2-.69c.35.52,0,.29.67.88.15.33-.55-.14-.73-.34.47.54,1,1,1.57,1.48.14-.32,1.49.79,1.6.51l-2-1.21c.15-.31,1.65.13,2.76,1.12.22.35-.58.29-.63.4a3.3,3.3,0,0,1,.72.4,2.4,2.4,0,0,1,.62.44l-.64-.22c.64.58,1.4.4,2.06,1.23.28.21.64.95.8.82-.28-.65.28-1.7.74-1.74l.7.72a7.28,7.28,0,0,1,.88.86c.35.53-1.1.21-.81.67.07-.07.4,0,.54,0,.28.24-.28.18.44.52.28-.24,1.41.8.47-.07a14.67,14.67,0,0,1,1.51.86c-.17-.31,1.07-.36,1.8-.15-.08.06,0,.23.09.31.72.32,1.26.6,1.79.87s1.08.43,1.78.66c.1.12.75.43.42.48a2.47,2.47,0,0,1,.87.08c.77.56-1-.26-.43.28.11-.17,1.19.12,1.86.1-.06-.17-.42-.26-.84-.32s-.91-.15-1.24-.19c.13-.42,1.3-.43,2.82-.34,1.19.15.45.37.66.36,2.2.58,2-.35,3.8.2.7.36,0,.54.11.75a13.54,13.54,0,0,1-2.14-.43l.79.23a2.73,2.73,0,0,1-1.32-.13,8,8,0,0,0,2.33.48l1.69.24c.55.06,1.09.09,1.52.17.32-.08.86-.16.61-.27l-.55,0c-.5-.24,1-.27.35-.39a10.13,10.13,0,0,1,2.6-.23l.2.29c0-.09-.68-.13-1-.05.43-.13,1.61.34,2.07-.08l-.74-.17a7.89,7.89,0,0,1,2.52-.52c-.44-.28-.2,0-.87-.28.58.41-2.31.11-1.39.52-.68-.39-1.16-.06-2-.47,0,.11.31.21-.45.13a.54.54,0,0,1-.17.08h0l0,0s0,0,0,0a.9.9,0,0,1,.38.17,11.06,11.06,0,0,1-2,.27c-.46-.06.19-.11,0-.22l-.63.16c0-.2-1.16-.51-.09-.51-.32,0-.63-.09-1-.13a5.26,5.26,0,0,0-1.78-.31c-.44-.1-1.17.11-.75,0-.5,0-1-.11-1.49-.16v-.06c-.72-.17-1.48-.24-2.27-.37a7.52,7.52,0,0,1-2.29-.88A6.49,6.49,0,0,1,93,158l-.08-.24c-.61-.19-1.68-.93-2-.85-.45-.67-2.7-1.48-3.65-2.08l-.16.2c-.69-.35-1.31-.75-2.17-1.19l-.08.22a13.72,13.72,0,0,1-2.72-2.13c.12,0,.37.22.52.41a5.37,5.37,0,0,0-1.84-1.57c-.35-.22-.7-.43-1-.66a3.31,3.31,0,0,1-.74-.85,1.82,1.82,0,0,1-.6-.61l.07.05-.1-.1-.26-.44a1.91,1.91,0,0,0,.2.38,8.68,8.68,0,0,0-.83-.71l0-.29-.07-.06c-.21-.34-.31-.15-.29.12a2.84,2.84,0,0,0-.49-.28c.08-.5-.78-.75-.74-1.36-.33-.08-1.41-1.49-1.89-1.41,0,0,0-.15.12,0a5.18,5.18,0,0,0-.78-1.07l.14-.34-.89-.6c-.18-.61-.22-.88.3-.5a11.22,11.22,0,0,1-.92-.94c-.18-.21-.34-.39-.77-.86l.2,0c-.21-.39-.78-.89-.76-1.2-.18-1-2.12-4.43-2.48-7-.42.64-.09-1.2-.55-1.17.09-.18.06-.53.3-.18-.54-1.19-.27-1.91-.82-2.69.11-.18.25.22.3.08s-.19-.38-.14-.52.15.16.25.34c-.27-1.27-.72-1.32-1.13-1.35a2,2,0,0,0-.33-1.47c.11-.25.21-.65.33.16,0-.47-.09-2.82-.41-2.85a2.12,2.12,0,0,0-.08-.76c0-1,0-1.13,0-2.15l-.05.28c-.39-.4-.09-.85-.14-1.68l0,0c.38-1.87-.08-.83.39-2.66l-.24.08c-.47-.23.38-1.63.44-2.71l-.21.37c-.06-.62,1-1.51,1.17-2.06.07-.12,0,.21,0,.39.58-1.43-.27-.25-.13-1.4.21-.16.35.36.56-.37.24-.32.11-2.29.71-3.2-.19.18-.38.36-.32-.18.18-.82,1.27-1.88,1.15-2.73.07-.08.12-.1.15-.09.07-.31.22-.8.34-1.27a4.06,4.06,0,0,0,.29-1.1c1-.12,1.45-3.67,2.19-3.23l1-1.62,0,.08a5.1,5.1,0,0,0,.94-1.9c.23-.19.15,0,.17.05a7.56,7.56,0,0,0,2-2.87l.28,0c.18-.41,2.11-1.57,3.17-3a.38.38,0,0,1-.07.21c1.35-1.49,4-2.46,4.18-3.52l1-.91c-1.47.88,0-.47-.67-.21.54-.42,1.6-.73.93-.23l-.13,0c0,.28.47,0,.95-.26s1-.53,1.08-.39c.73-.39,1.47-.77,2.21-1.13a19.27,19.27,0,0,1,2.28-.9c.76-.27,1.51-.57,2.26-.8s1.53-.41,2.28-.63l-.45-.25,1-.29c.3,0,.44.17-.3.37.44.08,1.2-.54,1.21-.59,1.53-.16-.48.53,0,.44l.61-.15h-.15a3.06,3.06,0,0,1,1.4-.57c.6,0,.34.16.57.13,0,0,.08,0,.35-.06a10.44,10.44,0,0,1,1.35-.19,4.58,4.58,0,0,0-.58-.22c.58-.23,1.29-.12.61-.39a9.19,9.19,0,0,0,3,0,16,16,0,0,1,2.71,0,7,7,0,0,1,2.75-.1c-.25-.08-.39-.42.51-.29-.38.63,1.63.44,2.29,1-.59-.46,2.52.39,1.6-.25.73.2,0,.26.53.52,1.83,0,3.77,1.08,5.89,1.63.06-.07-.24-.34.25-.29l.92.85c.42.13.56-.32,1.18.27-.07-.11-.19-.28.1-.2.47.26,1,.48,1.46.73s1,.54,1.44.79a30.44,30.44,0,0,1,2.91,1.59c.93.6,1.87,1.21,2.76,1.86a14.92,14.92,0,0,1,2.36,2.34c-.34-.51,0-.27.32,0-.2-.22.14-.15.18-.28.39.49.77,1,1.13,1.49.48,0,1.41,1.37,1.76,1.3l-.44-.38c.81.3-.17-1.37.23-1.63-.92-.32-1.29-2.11-2.83-2.59-.19-.28.31.06.25-.14a2.86,2.86,0,0,1-1.4-.92l.11,0c-.94-.72-1.65-1.16-2.34-1.71l-1.11-.86a10.5,10.5,0,0,0-1.42-1l0,.3a3.75,3.75,0,0,1-.76-.59c-.75,0,1.41.77.68.83a6.12,6.12,0,0,0-2-1.32c-.42-.23-.84-.46-1.17-.68s-.59-.37-.65-.55c-.82-.33.13.35-.69,0l-.15-.22-.28.09c-.52-.24-.72-.52-.7-.65a3,3,0,0,0,.53.16,13.29,13.29,0,0,0-2.21-.87c.26.11.51.26.76.39-2.3-.68-5.1-1.68-7.45-1.73l.16.14a6,6,0,0,1-1.59-.27,7.39,7.39,0,0,0-1.72-.22l.07,0a5.25,5.25,0,0,1-1.44,0c.5-.08-.9-.33-.25-.42a3.73,3.73,0,0,0-1.36.15,4.61,4.61,0,0,1-.87.37l-.28-.18a3.07,3.07,0,0,1-1.42.31c.78-.17-.63-.28.25-.5a6,6,0,0,0-1.34-.1,10.18,10.18,0,0,0-1,.2,2.17,2.17,0,0,1-1.57,0c-.87.61,1.77.11,1.27.27.44.13-.73.46-1.36.47s-1.18-.59-2.78-.23c.16,0,.16-.07.32-.1-.62,0-1.14.41-1.92.34-.34.39-1,.18-1,.59l1.45-.38c-.41.13-.78.35-1.22.54a5.68,5.68,0,0,1-1.63.52,3.34,3.34,0,0,1,.7-.47c-.42,0-.72.3-1.16.31,0-.21.43-.36,1-.53l.82-.27a3.26,3.26,0,0,0,.75-.29c-.48-.11-1.6.69-1.27.15-.49.72-1.57.4-2.51,1.12v-.25a3.74,3.74,0,0,1-.78.39l.46-.46c-.79.47-1.71.39-2.47.83,1.68-.69.48.11,1.25,0-1.93,1.14-1.43-.12-3.69,1,.28-.2,1.23-.36.78-.07a14,14,0,0,1-1.37.37c-1.45.82.33.1-.23.56-.63,0-.66.48-1.25.9l-.12-.21c-1.73.76-.23.61-1.74,1.36l.43-.68-.7.56v-.33a6.05,6.05,0,0,1-1.8,1.28c.27,0,.14.43-.54.89-.55.21.1-.4-.8.36.12-.28.22-.64.79-.73,0-.1.13-.27.13-.36a5.07,5.07,0,0,0-1.6,1.15,2.75,2.75,0,0,1,.39-.25l-1.12,1.35c-.27.1-.15-.09,0-.28-.25.24-.37.47-.75.81,0-.23-.18-.36.33-.89l-1.14,1.2c-.14,0-.76.42-.66.21-.73.56-1.32,1.85-2.29,2.6a1.15,1.15,0,0,1-.23.38,12.62,12.62,0,0,0-2.22,2.68l-.77.38c-.56.9,1-.58.05.93-.59,1.09-.5.21-.82.52a5.33,5.33,0,0,1-1.35,2.49A8,8,0,0,1,70.79,96.39Zm-5.05,11.85c0-.25,0-.77.2-.91C66.13,107.68,65.94,107.85,65.74,108.24Zm-.15,19.34a1.33,1.33,0,0,1-.11-.79A2.69,2.69,0,0,1,65.59,127.58Zm37,32.78h0C102.07,160.21,102.25,160.27,102.61,160.36Zm1.08.24c.11,0,.1,0,.06-.09a1.27,1.27,0,0,1-.6,0C103.22,160.55,103.35,160.62,103.69,160.6Zm-3.34-81.66-.23,0C100.59,78.75,100.47,78.84,100.35,78.94Z"/><path class="cls-2" d="M64.88,125.46a.18.18,0,0,1,.12-.12C65,125.25,64.9,125.25,64.88,125.46Z"/><path class="cls-2" d="M75.57,89.9l0,0s0,0,0-.06Z"/><path class="cls-2" d="M86.53,157.34a1.63,1.63,0,0,1-.35-.33S86.21,157.15,86.53,157.34Z"/><path class="cls-2" d="M109.5,160.31l-.7.1a1.82,1.82,0,0,1,.63,0S109.28,160.32,109.5,160.31Z"/><path class="cls-2" d="M115.8,161.06c.1-.05.22-.05.32-.1l-.05-.11C115.63,161,115.34,161.12,115.8,161.06Z"/><path class="cls-2" d="M110.19,161.07c.07.2.52.11,1,.05h-.09C111.24,160.83,110.72,161,110.19,161.07Z"/><path class="cls-2" d="M111.32,161.1l.46,0C111.82,160.94,111.59,161.07,111.32,161.1Z"/><path class="cls-2" d="M105.09,160.57c.23.06.16-.26.28-.17C105.65,160.15,103.8,160.66,105.09,160.57Z"/><polygon class="cls-2" points="110.64 161.72 110.45 161.48 110.18 161.69 110.64 161.72"/><path class="cls-2" d="M106.65,161.63l.81.1s.09-.06.21-.08C107.18,161.63,106.63,161.56,106.65,161.63Z"/><path class="cls-2" d="M107.67,161.65a1.58,1.58,0,0,0,.65-.05Z"/><polygon class="cls-2" points="109.54 161.85 109.3 161.81 108.73 161.82 109.54 161.85"/><path class="cls-2" d="M98.08,160.51l-.88-.12c-.11.07.11.17.44.21S98.19,160.62,98.08,160.51Z"/><path class="cls-2" d="M100.57,161.73a.73.73,0,0,1-.36-.24l-.08.3A3.56,3.56,0,0,0,100.57,161.73Z"/><path class="cls-2" d="M98,161.27c-.1.07-1.33,0-.21.19C97.9,161.39,98.79,161.52,98,161.27Z"/><polygon class="cls-2" points="85.73 155.94 85.94 156.04 86.17 155.59 85.73 155.94"/><path class="cls-2" d="M75.73,149.37c.68.85.41,0,1,.76.26.09-.47-.65-.22-.54C76,149.22,75.77,148.92,75.73,149.37Z"/><path class="cls-2" d="M76.5,149.59l.29.18A1.25,1.25,0,0,0,76.5,149.59Z"/><polygon class="cls-2" points="136.95 90.88 137.33 91.42 137.16 91 136.95 90.88"/><path class="cls-2" d="M138.1,91.53l-.14.33.49.1C138.33,91.86,138.12,91.66,138.1,91.53Z"/><path class="cls-2" d="M64.63,110l.07.07c.1-.09.14-.25.21-.57Z"/><path class="cls-2" d="M67.89,101.06l-.07.15c.12-.06.27-.1.4-.15Z"/><path class="cls-2" d="M71.61,94c-.19.27-.35.62-.54.89C71.42,94.28,72,94.15,71.61,94Z"/></g></g></svg>